# xmcd CD database file
#
# Track frame offsets:
#	150
#	56375
#	88487
#	135450
#	192225
#	244562
#	279012
#
# Disc length: 4503 seconds
#
# Revision: 0
# Processed by: cddbd v1.5PL3 Copyright (c) Steve Scherf et al.
# Submitted via: CDex 1.51
#
DISCID=57119507
DTITLE=Gerorge Robert Quartet - Live -Feat. Mr. Clark Terry
DYEAR=1990
DGENRE=Jazz
TTITLE0=The Snapper
TTITLE1=Michelle
TTITLE2=Samba De Gumz
TTITLE3=On Green Dolphine Street
TTITLE4=Simple Waltz
TTITLE5=Joan
TTITLE6=Mumbles
EXTD=YEAR: 1990
EXTT0=
EXTT1=
EXTT2=
EXTT3=
EXTT4=
EXTT5=
EXTT6=
PLAYORDER=
